HIERARCHY
ROOT Hips
{
	OFFSET -0.179506 -22.333345 2.821913
	CHANNELS 6 Xposition Yposition Zposition Zrotation Yrotation Xrotation 
	JOINT LeftUpLeg
	{
		OFFSET 6.951974 -9.140623 -0.681533
		CHANNELS 3 Zrotation Yrotation Xrotation
		JOINT LeftLeg
		{
			OFFSET 3.427654 -37.519855 -0.449580
			CHANNELS 3 Zrotation Yrotation Xrotation
			JOINT LeftFoot
			{
				OFFSET -1.359570 -39.796059 -4.369333
				CHANNELS 3 Zrotation Yrotation Xrotation
				JOINT LeftToe
				{
					OFFSET 2.635814 -5.579078 11.928840
					CHANNELS 3 Zrotation Yrotation Xrotation
					End Site
					{
						OFFSET 0.000000 0.000000 0.000000
					}
				}
			}
		}
	}
	JOINT RightUpLeg
	{
		OFFSET -6.767048 -9.052170 -0.431982
		CHANNELS 3 Zrotation Yrotation Xrotation
		JOINT RightLeg
		{
			OFFSET -3.829005 -38.256897 -0.885003
			CHANNELS 3 Zrotation Yrotation Xrotation
			JOINT RightFoot
			{
				OFFSET 1.577377 -39.841461 -4.231180
				CHANNELS 3 Zrotation Yrotation Xrotation
				JOINT RightToe
				{
					OFFSET -2.537174 -4.814398 12.334795
					CHANNELS 3 Zrotation Yrotation Xrotation
					End Site
					{
						OFFSET 0.000000 0.000000 0.000000
					}
				}
			}
		}
	}
	JOINT Spine
	{
		OFFSET -0.253288 10.896323 -2.669631
		CHANNELS 3 Zrotation Yrotation Xrotation
		JOINT Spine1
		{
			OFFSET 0.548704 13.518043 0.109247
			CHANNELS 3 Zrotation Yrotation Xrotation
			JOINT Spine2
			{
				OFFSET 0.145701 5.292222 2.542457
				CHANNELS 3 Zrotation Yrotation Xrotation
				JOINT Neck
				{
					OFFSET -0.277840 21.387037 -4.285703
					CHANNELS 3 Zrotation Yrotation Xrotation
					JOINT Head
					{
						OFFSET 0.515184 6.496960 5.134897
						CHANNELS 3 Zrotation Yrotation Xrotation
						End Site
						{
							OFFSET 0.000000 0.000000 0.000000
						}
					}
				}
				JOINT LeftShoulder
				{
					OFFSET 7.884473 12.174932 -3.408961
					CHANNELS 3 Zrotation Yrotation Xrotation
					JOINT LeftArm
					{
						OFFSET 9.097692 3.046888 -0.886815
						CHANNELS 3 Zrotation Yrotation Xrotation
						JOINT LeftForeArm
						{
							OFFSET 25.961220 -1.277207 -2.745643
							CHANNELS 3 Zrotation Yrotation Xrotation
							JOINT LeftHand
							{
								OFFSET 24.923361 0.898606 -0.117091
								CHANNELS 3 Zrotation Yrotation Xrotation
								End Site
								{
									OFFSET 0.000000 0.000000 0.000000
								}
							}
						}
					}
				}
				JOINT RightShoulder
				{
					OFFSET -8.175920 11.883285 -3.861528
					CHANNELS 3 Zrotation Yrotation Xrotation
					JOINT RightArm
					{
						OFFSET -9.601238 3.255117 -0.914307
						CHANNELS 3 Zrotation Yrotation Xrotation
						JOINT RightForeArm
						{
							OFFSET -25.374195 -1.332924 -2.140099
							CHANNELS 3 Zrotation Yrotation Xrotation
							JOINT RightHand
							{
								OFFSET -25.529810 0.777228 -0.555919
								CHANNELS 3 Zrotation Yrotation Xrotation
								End Site
								{
									OFFSET 0.000000 0.000000 0.000000
								}
							}
						}
					}
				}
			}
		}
	}
}
MOTION
Frames: 6
Frame Time: 0.033333
-102.623383 -3.587892 95.467636 -117.882818 1.553059 84.155551 10.640778 9.225033 6.729343 -1.618864 12.064724 9.941450 -1.773141 8.427364 -16.457115 nan nan nan -10.869400 -6.818172 -3.395767 2.040354 -5.210297 1.704694 4.971904 1.154858 -0.047066 nan nan nan -9.014750 3.356702 -1.081543 8.610205 -5.229048 18.954076 2.186044 1.138878 -9.436904 2.600310 -16.866975 15.554492 11.946064 -28.456283 -7.769888 -9.791307 -9.294091 4.256842 -72.934872 -39.261825 40.159941 162.715289 -76.937607 -146.207726 0.657067 -36.272043 -18.608979 15.696921 4.961921 -0.921941 44.452601 8.328843 -0.023899 -57.996157 45.036882 -56.296634 8.640641 17.983240 -25.323599 
-102.628654 -3.616219 95.445381 -117.942226 1.622099 84.225065 10.643715 9.027695 6.613769 -1.659067 11.990130 10.013497 -1.881130 8.733722 -16.567426 nan nan nan -10.759884 -6.766940 -3.476743 1.966278 -5.146195 1.676784 5.092925 1.035089 -0.053488 nan nan nan -8.730510 3.331065 -1.359525 8.398852 -5.089561 18.873601 2.194406 1.020105 -9.065188 2.668574 -16.928321 15.520843 11.723299 -28.282363 -7.016043 -9.504628 -9.443154 4.090292 -72.885249 -39.469622 39.991065 162.393084 -77.029908 -145.646534 0.790705 -36.187032 -19.247708 15.361120 5.065280 -1.038107 44.301858 8.738913 -0.217931 -58.631391 44.719859 -57.480787 8.790022 18.261089 -26.878908 
-102.646461 -3.628614 95.440857 -118.020991 1.646719 84.260420 10.641441 8.976614 6.525391 -1.679725 11.986484 10.144500 -1.926767 8.870571 -16.621509 nan nan nan -10.715735 -6.740313 -3.512067 1.926476 -5.110308 1.642251 5.202782 0.991342 -0.043097 nan nan nan -8.549894 3.199563 -1.420296 8.242438 -5.051731 18.524863 2.154307 1.077606 -8.777803 2.592082 -16.917022 15.967832 11.708458 -28.126318 -6.578422 -9.289937 -9.525735 4.024252 -72.779297 -39.573749 39.889013 161.953351 -77.072646 -145.020048 1.108391 -36.110310 -20.109803 14.998485 5.191869 -1.080219 44.233540 9.092923 -0.407430 -59.391791 44.418060 -58.470857 8.814228 18.321115 -28.182657 
-102.659416 -3.661303 95.437599 -118.054489 1.606393 84.336821 10.573723 9.001271 6.316669 -1.627882 12.043852 10.377262 -2.073824 8.835720 -16.635140 nan nan nan -10.759154 -6.812712 -3.603645 1.915336 -5.047463 1.613318 5.424674 0.940031 -0.066282 nan nan nan -8.217294 2.722259 -1.232368 7.821952 -5.234042 17.490173 1.878044 1.515595 -8.094369 2.377873 -16.752821 16.653084 12.026996 -27.895974 -6.184162 -8.948166 -9.414883 3.907671 -72.519938 -39.627582 39.672869 161.968628 -77.097140 -144.985938 1.659952 -36.240040 -21.761761 14.780905 5.340087 -0.952443 44.232999 9.649676 -0.788023 -60.095609 44.348629 -59.376138 8.729467 18.245257 -29.295286 
-102.672173 -3.706649 95.439064 -117.980617 1.650495 84.237931 10.612098 8.927370 6.263684 -1.606014 11.972571 10.605895 -2.034660 8.902698 -16.732703 nan nan nan -10.754913 -6.872380 -3.434337 1.932540 -5.000749 1.493752 5.335755 0.845169 -0.002805 nan nan nan -8.231875 3.083657 -1.284385 7.964870 -5.114423 17.891442 2.013557 1.181702 -8.400440 2.411145 -17.025009 16.646443 11.827421 -27.892633 -5.436133 -8.838811 -9.737010 3.872129 -72.621744 -40.007545 39.829476 159.900751 -77.186968 -143.222763 1.420535 -36.648633 -23.549848 14.328435 5.229079 -1.423669 43.798942 9.758309 -0.974697 -60.769266 44.317941 -60.531826 8.661497 18.368492 -30.231019 
-102.682983 -3.730420 95.442093 -117.971341 1.627112 84.211542 10.613928 8.896551 6.146858 -1.635946 11.960053 10.858375 -2.034440 8.944088 -16.831951 nan nan nan -10.769102 -6.906145 -3.388672 1.911334 -4.959300 1.421269 5.308889 0.778025 0.070518 nan nan nan -8.182649 3.162458 -1.345441 7.932039 -5.097108 18.058257 1.986765 1.083137 -8.572240 2.449007 -17.146276 16.824893 11.689144 -27.823547 -4.748783 -8.748689 -9.815662 3.877209 -72.491426 -40.299795 39.744990 159.509315 -77.072098 -142.546702 1.067335 -36.546019 -23.279090 14.046028 5.169358 -1.540431 43.395125 10.158182 -1.334242 -61.464086 44.294901 -61.442916 8.589069 18.251811 -30.482642 
